<?xml version="1.0" encoding="UTF-8" standalone="no"?>
<!DOCTYPE svg PUBLIC "-//W3C//DTD SVG 1.1//EN" "http://www.w3.org/Graphics/SVG/1.1/DTD/svg11.dtd">
<svg width="100%" height="100%" viewBox="0 0 32 32" version="1.1" xmlns="http://www.w3.org/2000/svg" xmlns:xlink="http://www.w3.org/1999/xlink" xml:space="preserve" xmlns:serif="http://www.serif.com/" style="fill-rule:evenodd;clip-rule:evenodd;stroke-linecap:round;stroke-linejoin:round;stroke-miterlimit:1.5;">
    <g transform="matrix(1,0,0,1,1.978413,1.871745)">
        <circle cx="6.068" cy="7.454" r="1.506" style="stroke:black;stroke-width:1px;"/>
    </g>
    <g transform="matrix(1,0,0,1,1.978413,8.545572)">
        <circle cx="6.068" cy="7.454" r="1.506" style="stroke:black;stroke-width:1px;"/>
    </g>
    <g transform="matrix(1,0,0,1,1.978413,15.300129)">
        <circle cx="6.068" cy="7.454" r="1.506" style="stroke:black;stroke-width:1px;"/>
    </g>
    <g transform="matrix(1,0,0,1,9.872292,1.871745)">
        <circle cx="6.068" cy="7.454" r="1.506" style="stroke:black;stroke-width:1px;"/>
    </g>
    <g transform="matrix(1,0,0,1,9.872292,8.545572)">
        <circle cx="6.068" cy="7.454" r="1.506" style="stroke:black;stroke-width:1px;"/>
    </g>
    <g transform="matrix(1,0,0,1,9.872292,15.300129)">
        <circle cx="6.068" cy="7.454" r="1.506" style="stroke:black;stroke-width:1px;"/>
    </g>
    <g transform="matrix(1,0,0,1,17.766172,1.871745)">
        <circle cx="6.068" cy="7.454" r="1.506" style="stroke:black;stroke-width:1px;"/>
    </g>
    <g transform="matrix(1,0,0,1,17.766172,8.545572)">
        <circle cx="6.068" cy="7.454" r="1.506" style="stroke:black;stroke-width:1px;"/>
    </g>
    <g transform="matrix(1,0,0,1,17.766172,15.300129)">
        <circle cx="6.068" cy="7.454" r="1.506" style="stroke:black;stroke-width:1px;"/>
    </g>
    <g transform="matrix(1,0,0,1,0.615294,-0.141764)">
        <rect x="2.324" y="3.141" width="26.001" height="26.001" style="fill:none;stroke:black;stroke-width:1px;"/>
    </g>
</svg>
